# xmcd
#
# Track frame offsets:
#	150
#	13490
#	24225
#	36676
#	47474
#	59954
#	71567
#	82378
#	93146
#	104271
#	114190
#	125508
#	136827
#	145987
#	158499
#	170587
#	182216
#	195194
#	209773
#	220955
#	232018
#	245545
#	259611
#	272978
#	285049
#	297742
#	311442
#
# Disc length: 4323 seconds
# Revision: 0
# Processed by: cddbd v1.5.2PL0 Copyright (c) Steve Scherf et al.
# Submitted via: dBpowerAMP V12.0
#
DISCID=9d10e11b
DTITLE=Various Artist - Juke Joint Blues, Vol. 2: More Jumping Juke Joint Sides CDA
DYEAR=2009
DGENRE=Blues
TTITLE0=Lee Brown - Horse Shoe Boogie
TTITLE1=Jerry McCain and His Upstarts - Bad Credit
TTITLE2=Cleo Harves - Crazy With The Blues
TTITLE3=Papa Lightfoot - P.L. Blues
TTITLE4=Louis Campbell - Gotta Have You Baby
TTITLE5=Sammy Myers - My Love Is Here To Stay
TTITLE6=Mr. Honey - Build A Cave
TTITLE7=Andrew Thomas - Chicago Blues
TTITLE8=K.C. Douglas - Mercury Boogie
TTITLE9=Haskell Sadler - Gone For Good
TTITLE10=Bill "Boogie Bill" Webb - I Ain't For It
TTITLE11=James Tisdom - Model T Boogie
TTITLE12=Big Chenier - Let Me Hold Your Hand
TTITLE13=King Davis - Waggin' Your Tail
TTITLE14=Sonny Boy Johnson - I'm Drinkin' My Last Drink
TTITLE15=Sidney Maiden - Eclipse Of The Sun
TTITLE16=J.D. Edwards - Playboy Blues
TTITLE17=Left Handed Charlie - Miss My Lagnion
TTITLE18=Country Jim - Old River Blues
TTITLE19=Lewis Campbell - Don't Want Anyone Hangin' Around
TTITLE20=Buddy Lewis - Lonesome Bedroom Blues
TTITLE21=Slim Green and the Cats From Fresno - Tricky Woman Blues
TTITLE22=Lee Brown - Ruby Moore Blues
TTITLE23=Pete McKinley - Mean Black Snake
TTITLE24=Ernest McClay - Night Working Woman
TTITLE25=Jerry Perkins - P 38 Stomp
TTITLE26=Hot Rod Happy - Worried Blues
EXTD=
EXTT0=
EXTT1=
EXTT2=
EXTT3=
EXTT4=
EXTT5=
EXTT6=
EXTT7=
EXTT8=
EXTT9=
EXTT10=
EXTT11=
EXTT12=
EXTT13=
EXTT14=
EXTT15=
EXTT16=
EXTT17=
EXTT18=
EXTT19=
EXTT20=
EXTT21=
EXTT22=
EXTT23=
EXTT24=
EXTT25=
EXTT26=
PLAYORDER=
